<svg width="11" height="7" viewBox="0 0 11 7" fill="none" xmlns="http://www.w3.org/2000/svg">
<path d="M5.01779 0.999812C5.18472 0.999486 5.3465 1.05763 5.47504 1.16414L9.76183 4.73646C9.90773 4.85773 9.99949 5.032 10.0169 5.22092C10.0343 5.40984 9.97598 5.59795 9.85471 5.74385C9.73343 5.88976 9.55917 5.98151 9.37025 5.99893C9.18132 6.01635 8.99322 5.958 8.84731 5.83673L5.01779 2.63593L1.18826 5.72242C1.11518 5.78176 1.03109 5.82608 0.940824 5.85283C0.85056 5.87957 0.7559 5.88821 0.662285 5.87825C0.56867 5.86829 0.477945 5.83993 0.395327 5.7948C0.312709 5.74966 0.239825 5.68864 0.180866 5.61525C0.115435 5.54179 0.0658808 5.4556 0.035307 5.3621C0.00473322 5.26859 -0.00620008 5.16978 0.00319017 5.07186C0.0125804 4.97393 0.042092 4.879 0.0898776 4.79301C0.137663 4.70702 0.202693 4.63182 0.280892 4.57213L4.56767 1.12127C4.69991 1.03159 4.85839 0.98883 5.01779 0.999812V0.999812Z" fill="#6F6E6E"/>
</svg>
